# xmcd CD database file
#
# Track frame offsets:
#	150
#	14790
#	44563
#	60466
#	87141
#	112275
#	144490
#	169434
#	191063
#	216506
#	230147
#
# Disc length: 3479 seconds
#
# Revision: 0
# Processed by: cddbd v1.5.2PL0 Copyright (c) Steve Scherf et al.
# Submitted via: CDex 1.81
#
DISCID=b00d950b
DTITLE=Various Artist - Jazz Club Augsburg - Jazzclub Sounds Volume 1 CD1
DYEAR=2012
DGENRE=Jazz
TTITLE0=Alabama Jubilee
TTITLE1=Tamalpais
TTITLE2=Sehnsucht des Kreisels
TTITLE3=Light my Fire
TTITLE4=Hurry up and Wait
TTITLE5=Dove over Black Sea
TTITLE6=Mr. Funk
TTITLE7=A Felicidade
TTITLE8=Who knows
TTITLE9=Theme there eyes
TTITLE10=Smells like teen spirit
EXTD=YEAR: 2012
EXTT0=
EXTT1=
EXTT2=
EXTT3=
EXTT4=
EXTT5=
EXTT6=
EXTT7=
EXTT8=
EXTT9=
EXTT10=
PLAYORDER=
